<?xml version="1.0" encoding="UTF-8"?>
<!DOCTYPE svg PUBLIC "-//W3C//DTD SVG 1.1//EN" "http://www.w3.org/Graphics/SVG/1.1/DTD/svg11.dtd">
<svg xmlns="http://www.w3.org/2000/svg" version="1.1" width="1080px" height="172px" style="shape-rendering:geometricPrecision; text-rendering:geometricPrecision; image-rendering:optimizeQuality; fill-rule:evenodd; clip-rule:evenodd" xmlns:xlink="http://www.w3.org/1999/xlink">
<g><path style="opacity:0.993" fill="#fefffe" d="M -0.5,-0.5 C 54.8333,-0.5 110.167,-0.5 165.5,-0.5C 165.5,36.8333 165.5,74.1667 165.5,111.5C 146.833,111.5 128.167,111.5 109.5,111.5C 109.5,130.833 109.5,150.167 109.5,169.5C 72.8333,169.5 36.1667,169.5 -0.5,169.5C -0.5,112.833 -0.5,56.1667 -0.5,-0.5 Z M 56.5,58.5 C 73.8333,58.5 91.1667,58.5 108.5,58.5C 108.5,75.8333 108.5,93.1667 108.5,110.5C 91.1667,110.5 73.8333,110.5 56.5,110.5C 56.5,93.1667 56.5,75.8333 56.5,58.5 Z"/></g>
<g><path style="opacity:0.971" fill="#fefffe" d="M 627.5,-0.5 C 644.167,-0.5 660.833,-0.5 677.5,-0.5C 677.5,11.8333 677.5,24.1667 677.5,36.5C 660.833,36.5 644.167,36.5 627.5,36.5C 627.5,24.1667 627.5,11.8333 627.5,-0.5 Z"/></g>
<g><path style="opacity:0.976" fill="#fefffe" d="M 734.5,-0.5 C 750.833,-0.5 767.167,-0.5 783.5,-0.5C 783.5,11.1667 783.5,22.8333 783.5,34.5C 776.867,35.214 770.2,35.714 763.5,36C 760.011,37.9709 758.011,40.9709 757.5,45C 765.997,46.4686 774.664,46.9686 783.5,46.5C 783.5,58.1667 783.5,69.8333 783.5,81.5C 774.833,81.5 766.167,81.5 757.5,81.5C 757.5,110.833 757.5,140.167 757.5,169.5C 740.833,169.5 724.167,169.5 707.5,169.5C 707.5,140.167 707.5,110.833 707.5,81.5C 700.833,81.5 694.167,81.5 687.5,81.5C 687.5,69.8333 687.5,58.1667 687.5,46.5C 694.167,46.5 700.833,46.5 707.5,46.5C 706.57,34.0708 709.07,22.4041 715,11.5C 720.554,5.81368 727.054,1.81368 734.5,-0.5 Z"/></g>
<g><path style="opacity:0.975" fill="#fefffe" d="M 835.5,-0.5 C 851.833,-0.5 868.167,-0.5 884.5,-0.5C 884.5,11.1667 884.5,22.8333 884.5,34.5C 877.867,35.214 871.2,35.714 864.5,36C 860.651,38.3476 858.984,41.8476 859.5,46.5C 867.833,46.5 876.167,46.5 884.5,46.5C 884.5,58.1667 884.5,69.8333 884.5,81.5C 876.167,81.5 867.833,81.5 859.5,81.5C 859.5,110.833 859.5,140.167 859.5,169.5C 842.5,169.5 825.5,169.5 808.5,169.5C 808.5,140.167 808.5,110.833 808.5,81.5C 801.833,81.5 795.167,81.5 788.5,81.5C 788.5,69.8333 788.5,58.1667 788.5,46.5C 795.167,46.5 801.833,46.5 808.5,46.5C 808.417,35.7987 810.25,25.4654 814,15.5C 819.041,7.28975 826.208,1.95642 835.5,-0.5 Z"/></g>
<g><path style="opacity:0.986" fill="#fefffe" d="M 212.5,0.5 C 247.502,0.333348 282.502,0.500015 317.5,1C 348.282,4.09872 362.782,20.9321 361,51.5C 358.556,63.101 352.389,72.101 342.5,78.5C 363.683,90.8781 371.85,109.211 367,133.5C 361.761,151.072 350.261,162.239 332.5,167C 326.883,168.052 321.216,168.718 315.5,169C 281.168,169.5 246.835,169.667 212.5,169.5C 212.5,113.167 212.5,56.8333 212.5,0.5 Z M 266.5,42.5 C 276.506,42.3335 286.506,42.5002 296.5,43C 306.547,47.8625 307.881,54.5292 300.5,63C 289.23,64.4093 277.896,64.9093 266.5,64.5C 266.5,57.1667 266.5,49.8333 266.5,42.5 Z M 266.5,104.5 C 279.538,104.173 292.538,104.673 305.5,106C 312.538,110.6 313.871,116.433 309.5,123.5C 307.446,125.194 305.112,126.361 302.5,127C 290.505,127.5 278.505,127.667 266.5,127.5C 266.5,119.833 266.5,112.167 266.5,104.5 Z"/></g>
<g><path style="opacity:0.79" fill="#fefffe" d="M 1079.5,21.5 C 1079.5,22.8333 1079.5,24.1667 1079.5,25.5C 1073.5,43.864 1061.5,49.0307 1043.5,41C 1033.52,31.361 1032.02,20.5276 1039,8.5C 1051.96,-2.67042 1064.29,-2.00376 1076,10.5C 1077.59,14.1613 1078.76,17.828 1079.5,21.5 Z M 1068.5,33.5 C 1066.9,29.8106 1064.9,26.3106 1062.5,23C 1066.96,17.9575 1066.29,13.9575 1060.5,11C 1055.85,10.5008 1051.18,10.3342 1046.5,10.5C 1050.91,5.58375 1056.24,4.41708 1062.5,7C 1070.9,11.2979 1074.4,18.1312 1073,27.5C 1072.21,30.1064 1070.71,32.1064 1068.5,33.5 Z M 1046.5,10.5 C 1046.5,18.1667 1046.5,25.8333 1046.5,33.5C 1048.83,33.5 1051.17,33.5 1053.5,33.5C 1053.34,31.1432 1053.5,28.8098 1054,26.5C 1054.41,26.0426 1054.91,25.7093 1055.5,25.5C 1057.66,27.8313 1059.66,30.3313 1061.5,33C 1063.81,33.4966 1066.14,33.6633 1068.5,33.5C 1061.14,41.1356 1053.31,41.4689 1045,34.5C 1038.56,25.8976 1039.06,17.8976 1046.5,10.5 Z M 1053.5,16.5 C 1060.17,17.5 1060.17,18.5 1053.5,19.5C 1053.5,18.5 1053.5,17.5 1053.5,16.5 Z"/></g>
<g><path style="opacity:0.848" fill="#fefffe" d="M 1046.5,10.5 C 1051.18,10.3342 1055.85,10.5008 1060.5,11C 1066.29,13.9575 1066.96,17.9575 1062.5,23C 1064.9,26.3106 1066.9,29.8106 1068.5,33.5C 1066.14,33.6633 1063.81,33.4966 1061.5,33C 1059.66,30.3313 1057.66,27.8313 1055.5,25.5C 1054.91,25.7093 1054.41,26.0426 1054,26.5C 1053.5,28.8098 1053.34,31.1432 1053.5,33.5C 1051.17,33.5 1048.83,33.5 1046.5,33.5C 1046.5,25.8333 1046.5,18.1667 1046.5,10.5 Z M 1053.5,16.5 C 1053.5,17.5 1053.5,18.5 1053.5,19.5C 1060.17,18.5 1060.17,17.5 1053.5,16.5 Z"/></g>
<g><path style="opacity:0.969" fill="#fefffe" d="M 436.5,43.5 C 462.216,41.3435 483.716,49.6768 501,68.5C 510.836,84.5169 514.336,101.85 511.5,120.5C 481.833,120.5 452.167,120.5 422.5,120.5C 423.267,128.771 427.601,134.271 435.5,137C 444.485,139.948 452.818,138.781 460.5,133.5C 475.822,132.334 491.156,132.167 506.5,133C 507.428,133.388 508.095,134.055 508.5,135C 501.808,151.357 490.142,162.69 473.5,169C 454.167,169.667 434.833,169.667 415.5,169C 382.964,154.719 369.797,129.885 376,94.5C 380.506,72.6673 393.006,57.5006 413.5,49C 421.117,46.3441 428.784,44.5107 436.5,43.5 Z M 435.5,78.5 C 442.391,77.9013 449.058,78.7346 455.5,81C 460.167,83.8396 462.5,88.0062 462.5,93.5C 449.507,94.5922 436.507,94.5922 423.5,93.5C 424.447,85.8869 428.447,80.8869 435.5,78.5 Z"/></g>
<g><path style="opacity:0.975" fill="#fefffe" d="M 952.5,43.5 C 966.935,43.4956 981.269,44.6623 995.5,47C 1006,49.8322 1014.83,55.3322 1022,63.5C 1023.89,66.618 1025.23,69.9513 1026,73.5C 1026.85,103.177 1027.85,132.844 1029,162.5C 1029.64,164.762 1030.48,166.929 1031.5,169C 1014.49,169.833 997.49,169.666 980.5,168.5C 979.27,164.845 978.103,161.178 977,157.5C 972.965,162.87 967.798,166.703 961.5,169C 945.5,169.667 929.5,169.667 913.5,169C 896.042,159.689 889.542,145.189 894,125.5C 897.799,113.701 905.632,105.868 917.5,102C 934.64,98.1904 951.973,95.5237 969.5,94C 977.309,90.6177 978.309,85.9511 972.5,80C 966.474,78.0473 960.474,78.0473 954.5,80C 951.495,82.3457 949.495,85.3457 948.5,89C 931.837,89.4999 915.17,89.6666 898.5,89.5C 899.025,68.2637 909.358,54.4303 929.5,48C 937.263,46.2657 944.929,44.7657 952.5,43.5 Z M 975.5,116.5 C 978.273,136.55 969.607,144.384 949.5,140C 942.8,135.314 942.133,129.981 947.5,124C 955.027,121.8 962.694,120.133 970.5,119C 972.491,118.626 974.158,117.793 975.5,116.5 Z"/></g>
<g><path style="opacity:0.982" fill="#fefffe" d="M 599.5,44.5 C 604.233,44.2232 608.9,44.5565 613.5,45.5C 614.499,60.4852 614.833,75.4852 614.5,90.5C 606.42,90.608 598.42,91.4413 590.5,93C 579.961,97.2347 574.794,105.068 575,116.5C 574.282,134.162 573.782,151.829 573.5,169.5C 557.167,169.5 540.833,169.5 524.5,169.5C 524.5,128.5 524.5,87.5 524.5,46.5C 540.833,46.5 557.167,46.5 573.5,46.5C 573.334,52.8421 573.5,59.1754 574,65.5C 578.576,53.6414 587.076,46.6414 599.5,44.5 Z"/></g>
<g><path style="opacity:0.967" fill="#fefffe" d="M 627.5,46.5 C 644.167,46.5 660.833,46.5 677.5,46.5C 677.5,87.5 677.5,128.5 677.5,169.5C 660.833,169.5 644.167,169.5 627.5,169.5C 627.5,128.5 627.5,87.5 627.5,46.5 Z"/></g>
</svg>
